# xmcd
#
# Track frame offsets: 
#        150
#        15125
#        28586
#        49321
#        71305
#        88286
#        104311
#        116316
#        128198
#        146615
#
# Disc length: 2189 seconds
#
# Revision: 0
# Processed by: cddbd v1.5.2PL0 Copyright (c) Steve Scherf et al.
# Submitted via: ExactAudioCopy v1.0b2
#
DISCID=7d088b0a
DTITLE=Jimmy O - At Every Turn
DYEAR=2003
DGENRE=Blues
TTITLE0=Jungle Love
TTITLE1=Shock to the System
TTITLE2=Tell Me Where It Hurts
TTITLE3=At Every Turn
TTITLE4=Start the Rain
TTITLE5=One Thousand Steps
TTITLE6=Bad Habit
TTITLE7=Learn to Love Your Shadow
TTITLE8=Forever
TTITLE9=Church of the Forgotten Saints
EXTD=
EXTT0=
EXTT1=
EXTT2=
EXTT3=
EXTT4=
EXTT5=
EXTT6=
EXTT7=
EXTT8=
EXTT9=
PLAYORDER=
